<svg width="64" height="64" viewBox="0 0 64 64" fill="none" xmlns="http://www.w3.org/2000/svg">
<path d="M2.66699 32.994C2.11499 32.994 1.66699 32.546 1.66699 31.994C1.66699 31.442 2.11499 30.994 2.66699 30.994L25.334 30.993C28.459 30.993 31.001 28.451 31.001 25.326L31.004 2.66199C31.004 2.10999 31.452 1.66199 32.004 1.66199C32.556 1.66199 33.004 2.10999 33.004 2.66199L33.001 25.326C33 29.554 29.561 32.993 25.334 32.993L2.66699 32.994Z" fill="white"/>
<g opacity="0.6">
<path opacity="0.6" d="M32 62.3289C31.448 62.3289 31 61.8819 31 61.3289V38.6589C31 34.4319 34.439 30.9919 38.666 30.9889L61.332 30.9769C61.333 30.9769 61.333 30.9769 61.333 30.9769C61.885 30.9769 62.333 31.4239 62.333 31.9769C62.333 32.5299 61.886 32.9769 61.334 32.9769L38.668 32.9889C35.542 32.9909 33 35.5339 33 38.6589V61.3289C33 61.8819 32.552 62.3289 32 62.3289Z" fill="white"/>
</g>
</svg>
